<svg version="1.1" id="Layer_1" xmlns="http://www.w3.org/2000/svg" xmlns:xlink="http://www.w3.org/1999/xlink" x="0px" y="0px"
	 width="100%" viewBox="0 0 512 288" enable-background="new 0 0 512 288" xml:space="preserve">
<path fill="#000000" opacity="1.000000" stroke="none" 
	d="
M73.747429,143.955750 
	C72.080307,127.982384 74.440292,113.403999 83.457794,100.186432 
	C85.876640,96.640961 85.701073,91.875946 85.969940,87.825508 
	C86.371384,81.777939 84.940819,75.604584 84.243835,69.489952 
	C83.868118,66.193756 83.600983,62.898369 79.860695,61.248940 
	C78.434509,60.620007 77.745491,58.824711 78.252190,57.349625 
	C81.348450,48.335815 83.101204,38.615612 91.781639,32.570061 
	C105.654579,22.908138 123.612404,24.957544 135.119202,37.825546 
	C137.572357,40.568897 139.992783,43.206039 143.124481,45.243797 
	C146.009308,47.120930 147.342361,49.811691 144.238174,52.629211 
	C142.013062,54.648834 142.055527,57.060329 142.473755,59.516605 
	C144.118362,69.175507 144.789658,78.992294 147.295731,88.516808 
	C147.929260,90.924622 149.293930,92.627441 150.933899,94.322708 
	C167.379807,111.323189 171.495361,131.331848 165.295776,153.797058 
	C163.430023,160.557938 161.959686,167.328857 162.274857,174.430588 
	C162.752640,185.196304 169.570023,193.579437 179.910172,196.693619 
	C192.110474,200.368057 203.240906,197.839233 213.906418,191.774170 
	C217.521790,189.718262 220.921478,187.286789 224.484528,185.134247 
	C229.208191,182.280563 234.122864,180.826324 239.697418,182.743973 
	C245.597656,184.773651 247.983353,192.586060 243.049530,196.295609 
	C234.250778,202.911041 227.104034,211.421356 217.839081,217.449997 
	C199.893524,229.127060 181.469330,229.923233 162.485779,220.204285 
	C161.320206,219.607544 160.098038,219.121384 158.937439,218.599594 
	C157.702408,219.721497 158.219482,220.955032 158.532410,221.935699 
	C160.975662,229.592331 164.216156,236.858780 169.264969,243.215714 
	C174.542328,249.860413 180.833557,251.372910 188.531631,247.624008 
	C190.248383,246.787979 191.630997,246.774109 193.137482,247.929504 
	C194.922440,249.298462 195.562698,251.126434 195.218109,253.223557 
	C194.546616,257.310242 191.872650,260.069153 188.553284,262.139404 
	C179.519821,267.773438 169.996445,266.959320 160.744781,263.172913 
	C143.507065,256.118011 133.675049,242.256760 127.459923,225.363007 
	C126.428413,222.559174 125.570908,219.691330 124.430054,216.238953 
	C121.462029,221.464951 118.963806,226.419632 115.959358,231.045547 
	C108.171204,243.036865 98.808640,253.340134 84.065170,256.507050 
	C72.343117,259.024994 61.890717,256.763885 54.079582,246.748322 
	C50.638741,242.336426 50.102943,237.307037 50.940792,232.061386 
	C51.351795,229.488144 52.963974,227.453369 55.413300,226.396866 
	C58.389698,225.113022 60.585293,225.719833 61.401573,229.257614 
	C63.591377,238.748230 69.588005,240.704224 76.896202,234.023697 
	C83.620094,227.877274 87.957848,220.068069 91.715683,210.671082 
	C83.851242,215.020035 76.521820,217.693329 68.254097,217.313202 
	C53.872490,216.651993 40.639336,205.613373 38.186852,191.807556 
	C36.950409,184.847214 40.703564,175.783524 46.280582,172.604233 
	C48.463276,171.359955 50.960598,170.173126 53.245705,172.147491 
	C55.632217,174.209412 53.905571,176.398941 52.868286,178.447479 
	C49.495808,185.107864 52.603661,190.406464 60.088593,190.739502 
	C68.898354,191.131485 79.728386,182.700668 81.464066,174.191299 
	C82.000267,171.562515 81.108818,169.218018 80.236305,166.913971 
	C77.458717,159.579285 75.331261,152.070999 73.747429,143.955750 
M141.844879,100.953377 
	C128.109756,103.661667 114.354645,105.922012 100.243599,105.429726 
	C89.123138,105.041779 89.062462,105.321999 85.180649,115.872482 
	C84.836464,116.807968 84.580948,117.775970 84.280754,118.727768 
	C79.786293,132.977966 82.483269,146.700546 87.283104,160.285660 
	C88.998283,165.140182 90.948044,169.930679 89.817383,175.330444 
	C87.893257,184.519608 82.079445,190.686630 74.324074,195.160767 
	C66.304710,199.787201 57.902428,200.801376 48.994362,195.771622 
	C56.880466,209.644073 72.069206,212.852432 86.102966,204.112335 
	C91.067589,201.020401 95.627281,197.399445 99.904388,193.405746 
	C101.453308,191.959442 103.086021,190.046265 105.530563,191.576218 
	C108.203590,193.249161 107.094269,195.593094 106.287338,197.804657 
	C103.028984,206.734985 99.515427,215.589127 94.781212,223.826645 
	C88.583054,234.611374 82.205833,245.460739 67.178291,246.827072 
	C73.191757,249.532333 81.695953,249.545578 86.923981,247.407303 
	C98.271362,242.766251 104.849083,233.423798 110.738823,223.403778 
	C115.484970,215.329285 118.779007,206.595459 122.173622,197.908310 
	C122.901749,196.044968 123.697708,193.942657 126.186646,194.065216 
	C128.913513,194.199524 129.522476,196.470703 130.008301,198.627914 
	C130.226044,199.594788 130.172134,200.619461 130.327621,201.604309 
	C132.451584,215.057602 136.106339,228.009674 143.968430,239.336334 
	C151.249100,249.825363 160.699692,256.986511 175.150528,257.601959 
	C170.703201,254.948090 167.128891,252.886993 164.230545,249.836960 
	C158.831940,244.155807 155.439209,237.309967 152.741516,230.113007 
	C148.763214,219.499634 146.141235,208.476822 143.341217,197.511429 
	C142.763199,195.247833 142.328918,193.025558 144.871063,191.923660 
	C147.782257,190.661789 149.015320,192.878693 150.166245,195.043625 
	C151.103622,196.806885 152.114304,198.539566 153.208832,200.209549 
	C161.414780,212.729797 173.637482,218.201630 187.989777,218.435837 
	C208.908295,218.777222 221.282150,203.734344 236.075134,190.556854 
	C229.882568,191.181046 226.140579,194.025391 222.264786,196.490402 
	C211.586197,203.282104 200.136078,207.141449 187.299194,206.319336 
	C169.248352,205.163376 152.570129,192.423615 153.704636,171.605911 
	C154.187881,162.738617 157.069443,154.327362 158.315598,145.603210 
	C160.354996,131.325531 158.148560,118.026894 149.682983,106.134270 
	C147.949844,103.699524 146.492981,100.454147 141.844879,100.953377 
M123.222115,49.663589 
	C126.727371,47.965908 131.238907,50.057674 134.573608,46.827858 
	C132.485382,42.229183 129.041061,39.096497 125.209908,36.462101 
	C111.554390,27.072250 93.104935,32.298382 87.178978,47.122982 
	C85.363853,51.663754 86.161316,53.105545 91.064857,52.635849 
	C101.490746,51.637173 112.016991,51.741062 123.222115,49.663589 
M112.542191,79.625076 
	C111.842880,74.877037 111.229240,70.113937 110.398438,65.389023 
	C110.101860,63.702305 110.005348,61.283783 107.536446,61.359482 
	C101.360878,61.548824 95.194481,62.037170 88.602005,62.430775 
	C89.597008,69.847221 90.497429,76.211632 91.279457,82.590553 
	C91.527252,84.611763 92.314873,85.514931 94.471565,85.359222 
	C99.097168,85.025276 103.738197,84.910866 108.367714,84.623009 
	C110.925507,84.463966 112.975220,83.629807 112.542191,79.625076 
M130.365906,77.905983 
	C129.177963,72.820259 131.992203,67.881859 130.796158,62.720192 
	C130.074783,59.607052 129.308517,57.633663 125.588417,59.075008 
	C122.925621,60.106709 120.080864,60.352936 117.227386,60.294575 
	C113.964668,60.227840 113.292656,61.660721 114.131798,64.722572 
	C115.361404,69.209129 116.560150,73.773636 117.023087,78.380196 
	C117.439720,82.525902 119.203613,83.566330 122.952187,82.531685 
	C121.191765,80.966576 118.715019,79.806862 119.455063,76.451340 
	C122.894051,76.491806 125.526894,77.963669 127.421288,80.434326 
	C128.735168,82.147896 129.881210,81.047005 130.877716,80.606270 
	C132.698715,79.800896 130.819031,79.177620 130.365906,77.905983 
M137.661514,89.821350 
	C122.522293,94.670120 106.858963,96.273285 90.884781,96.480026 
	C91.693398,100.049942 93.996223,99.817909 95.862068,99.846413 
	C102.640633,99.949944 109.422897,100.956024 116.203705,99.754593 
	C124.032082,98.367546 131.885757,97.121170 139.704193,95.681908 
	C141.338089,95.381134 143.107498,94.549728 142.263168,92.298866 
	C141.616150,90.574013 141.280441,88.016571 137.661514,89.821350 
M98.654442,55.335373 
	C94.258080,55.640644 89.861710,55.945919 85.465347,56.251190 
	C100.870384,56.663807 116.128235,55.710308 131.038925,51.676258 
	C120.619881,53.389137 110.214668,55.228390 98.654442,55.335373 
M138.617996,77.749222 
	C139.798904,70.800934 136.553528,64.739571 135.075623,58.306973 
	C134.373062,64.829956 135.839554,71.073662 136.813126,77.366241 
	C136.852631,77.621597 137.615555,77.765022 138.617996,77.749222 
M103.319733,90.871910 
	C106.485107,90.816368 109.626022,90.666763 113.532013,88.406029 
	C105.919853,88.036713 99.721062,89.006294 93.489182,89.616783 
	C93.506348,90.037262 93.523521,90.457733 93.540695,90.878212 
	C96.492699,90.878212 99.444710,90.878212 103.319733,90.871910 
M126.027817,85.836769 
	C123.821159,86.627151 121.148430,85.854301 118.305542,88.252884 
	C123.750481,88.046944 127.998604,87.367416 132.513046,85.180931 
	C129.988403,83.924988 128.480011,85.579330 126.027817,85.836769 
z"/>
<path fill="#000000" opacity="1.000000" stroke="none" 
	d="
M313.289032,181.972183 
	C309.696655,182.062637 306.532104,182.186432 303.373749,182.095230 
	C298.441254,181.952744 297.814209,180.799957 300.007751,176.317123 
	C305.634674,164.817795 311.277527,153.326202 316.874756,141.812424 
	C325.592957,123.878700 334.272522,105.926170 342.992432,87.993279 
	C343.551544,86.843468 343.824554,85.385002 346.681244,84.787247 
	C362.108673,116.218239 376.806580,148.331207 391.889526,181.006866 
	C386.182190,182.606308 381.320770,182.427307 376.451416,181.524384 
	C374.815857,181.221100 374.150665,179.760712 373.537445,178.354218 
	C371.344818,173.325592 368.879761,168.397720 367.009644,163.252930 
	C365.785858,159.886230 363.747009,158.402145 360.378967,158.397293 
	C350.558380,158.383148 340.737640,158.427292 330.917206,158.384827 
	C327.709869,158.370956 325.603546,159.702637 324.343872,162.699768 
	C322.347931,167.448761 320.205597,172.137329 318.064667,176.823822 
	C317.110504,178.912552 316.404327,181.273178 313.289032,181.972183 
M356.151672,143.396759 
	C358.046722,142.298340 357.228088,140.916870 356.547089,139.556137 
	C355.358917,137.181900 354.024384,134.869431 353.002228,132.426041 
	C351.116241,127.917671 349.471069,123.300560 345.842926,118.942879 
	C340.490204,126.597641 337.610474,134.768219 333.156860,143.588058 
	C341.309296,143.588058 348.355896,143.588058 356.151672,143.396759 
z"/>
<path fill="#000000" opacity="1.000000" stroke="none" 
	d="
M181.892166,165.993179 
	C181.886383,141.170364 181.871323,116.846352 181.881363,92.522346 
	C181.884262,85.527283 182.362747,84.955833 189.149078,85.033463 
	C198.279449,85.137886 207.451706,84.299149 216.496262,86.475128 
	C228.378510,89.333817 237.992477,100.680588 238.329422,112.490189 
	C238.772705,128.026596 232.030243,138.252335 218.606613,142.340424 
	C214.293625,143.653915 209.902924,144.634064 205.357483,144.269119 
	C201.459900,143.956223 199.995773,145.635376 200.066223,149.504883 
	C200.229965,158.498474 200.014862,167.499084 200.187027,176.492386 
	C200.267776,180.710419 198.747528,182.426117 194.371628,182.469635 
	C181.876846,182.593826 181.878311,182.735062 181.890503,170.490479 
	C181.891830,169.157639 181.891830,167.824814 181.892166,165.993179 
M212.331299,125.990517 
	C219.277512,123.271881 221.439636,119.584999 220.744186,111.644753 
	C220.276627,106.306435 217.282913,103.559975 210.383362,102.184563 
	C208.761108,101.861176 207.127975,101.579720 205.489731,101.351723 
	C201.818817,100.840866 199.795837,102.039986 200.065689,106.178627 
	C200.291855,109.647133 200.080032,113.142433 200.119293,116.625214 
	C200.257767,128.910477 198.525589,128.745132 212.331299,125.990517 
z"/>
<path fill="#000000" opacity="1.000000" stroke="none" 
	d="
M249.334991,175.697876 
	C244.521759,170.871902 241.192215,165.591110 239.778473,159.216125 
	C239.526260,158.078918 238.780350,156.688339 239.172287,155.830444 
	C241.584747,150.550140 247.124084,152.329117 251.236328,150.874588 
	C253.778152,149.975510 255.071655,151.409195 255.598770,154.100906 
	C256.449097,158.443069 256.942108,162.988144 261.598877,165.540802 
	C269.042572,169.621124 279.211609,167.302414 282.639191,160.494324 
	C287.038940,151.755219 283.756226,143.194336 274.546967,139.241180 
	C269.351654,137.011032 264.051147,134.963577 259.056671,132.341202 
	C249.128082,127.128166 239.686218,116.650406 243.660477,102.669479 
	C245.040649,97.814224 247.809235,93.928841 251.496735,90.767525 
	C264.780884,79.378899 285.551178,82.121590 295.664551,96.333321 
	C298.196075,99.890739 298.565674,102.546288 293.980530,104.485054 
	C292.769073,104.997292 291.635132,105.773811 290.593842,106.592163 
	C287.518280,109.009254 285.517822,108.378136 283.394073,105.040619 
	C279.521820,98.955322 270.266754,97.491241 264.378998,101.634140 
	C257.386200,106.554596 258.138275,114.829292 266.110107,118.703987 
	C271.339752,121.245834 276.892487,123.127563 282.099579,125.710091 
	C291.041809,130.145096 297.981781,136.327667 300.558868,146.654419 
	C304.874542,163.947708 290.502716,182.847290 272.707703,183.421219 
	C263.928802,183.704330 256.280304,181.591553 249.334991,175.697876 
z"/>
<path fill="#000000" opacity="1.000000" stroke="none" 
	d="
M426.866943,112.595276 
	C434.078735,110.394302 440.748016,111.043335 447.306366,113.561226 
	C457.004700,117.284637 461.864594,124.611160 462.060516,136.184509 
	C462.221161,145.675064 462.189514,155.169830 462.148529,164.662338 
	C462.131531,168.598511 463.273956,171.041458 467.846924,170.903839 
	C471.671875,170.788727 471.548065,172.917725 469.732269,175.383087 
	C464.199768,182.894592 455.572632,180.912079 450.986084,171.026642 
	C449.044647,170.980545 448.287720,172.717255 447.103485,173.747894 
	C443.271332,177.083130 439.159729,179.822144 433.929382,180.297577 
	C426.396576,180.982239 419.831390,179.050156 416.000275,172.098923 
	C412.183105,165.172958 412.529846,158.026764 416.717255,151.229904 
	C421.428284,143.583023 429.352661,140.721115 437.181366,137.844589 
	C440.450562,136.643387 443.862732,135.766052 447.272369,135.031525 
	C450.388855,134.360168 450.804199,132.879578 449.874054,130.024261 
	C447.858551,123.837349 440.704498,119.874474 433.485321,120.719749 
	C420.561493,122.232956 405.029907,135.218857 405.336456,155.000992 
	C405.437073,161.494537 405.099579,168.002960 405.417389,174.482269 
	C405.641205,179.045227 403.666199,180.097473 399.537628,180.191162 
	C395.034973,180.293350 393.793823,178.439041 393.832336,174.252518 
	C393.967194,159.598175 393.763550,144.940826 393.875549,130.286072 
	C393.916290,124.950493 393.379364,120.072189 389.161041,116.140274 
	C386.779816,113.920692 388.045258,112.382187 390.747498,111.568497 
	C395.840454,110.034943 401.962585,113.223221 403.994171,118.699303 
	C404.795013,120.857948 405.158447,123.178848 405.986023,126.484161 
	C412.051605,120.216667 417.938232,114.300514 426.866943,112.595276 
M437.507843,146.992493 
	C435.035675,148.332169 432.385254,149.425888 430.127686,151.061737 
	C425.143768,154.673126 423.566681,162.171188 426.598022,166.575760 
	C429.280945,170.474045 435.683685,171.194672 441.075958,168.205231 
	C450.524902,162.966782 452.957428,155.895187 449.470184,143.421082 
	C445.455902,143.540604 441.966583,145.616806 437.507843,146.992493 
z"/>
<path fill="#000000" opacity="1.000000" stroke="none" 
	d="
M139.670776,151.468719 
	C138.885300,150.355804 138.170654,149.577133 137.896454,148.665939 
	C136.839554,145.153961 137.552948,142.040298 140.780502,140.035995 
	C143.223663,138.518784 145.606827,139.255020 147.426559,141.332626 
	C149.897812,144.154099 150.110168,147.433517 148.035172,150.418701 
	C145.980301,153.374893 143.106766,154.149765 139.670776,151.468719 
z"/>
<path fill="#000000" opacity="1.000000" stroke="none" 
	d="
M124.315231,148.268768 
	C123.192978,151.301926 121.436638,153.177887 118.404640,153.105087 
	C116.019600,153.047821 114.545029,151.462570 113.579964,149.400299 
	C112.176056,146.400223 112.586533,143.573730 114.740051,141.132355 
	C116.275162,139.392044 118.346840,138.732239 120.567360,139.683487 
	C124.228928,141.252075 124.874504,144.338013 124.315231,148.268768 
z"/>
<path fill="#000000" opacity="1.000000" stroke="none" 
	d="
M126.185287,66.571144 
	C123.811584,67.296646 121.767097,67.889732 119.552284,68.532227 
	C118.147415,65.890625 120.159134,64.848534 121.717293,63.860996 
	C123.363632,62.817570 125.256836,62.791763 126.859467,64.044617 
	C127.892586,64.852257 127.519714,65.764870 126.185287,66.571144 
z"/>
</svg>