<svg version="1.1" id="Layer_1" xmlns="http://www.w3.org/2000/svg" xmlns:xlink="http://www.w3.org/1999/xlink" x="0px" y="0px"
	 width="100%" viewBox="0 0 736 416" enable-background="new 0 0 736 416" xml:space="preserve">
<path fill="#000000" opacity="1.000000" stroke="none" 
	d="
M225.077209,270.008606 
	C223.149063,297.479797 245.462067,310.008698 266.041534,310.989899 
	C282.717743,311.784973 297.360809,305.979767 310.987213,296.896576 
	C317.472198,292.573792 323.638458,287.686798 331.650787,286.136047 
	C340.024323,284.515442 349.048218,288.021759 351.765991,294.366760 
	C354.012573,299.611755 352.718964,305.613892 347.685944,308.931793 
	C337.725952,315.497711 329.845215,324.398193 320.866913,332.053833 
	C295.087769,354.035156 266.544250,360.477966 234.402420,348.669586 
	C228.624847,346.547028 223.396225,343.280884 217.188934,339.545288 
	C220.748322,353.722046 225.395752,366.265594 233.606964,377.364227 
	C237.687027,382.878998 242.637970,387.062805 249.086609,389.512512 
	C254.336563,391.506836 259.220581,391.183960 263.686523,387.648224 
	C266.078064,385.754822 268.561676,384.628723 271.462585,386.308380 
	C274.329376,387.968262 275.416412,390.581451 275.357697,393.875214 
	C275.243561,400.281464 271.198425,404.250641 266.660553,407.725159 
	C257.880676,414.447540 247.628799,415.488403 237.191025,413.892761 
	C205.488693,409.046417 187.460907,387.946808 174.839890,360.629852 
	C171.429291,353.247925 169.023926,345.521667 167.013351,337.001831 
	C160.820175,349.853058 154.384781,361.851776 145.776718,372.471558 
	C134.388382,386.521423 120.929314,397.758606 102.389580,400.642609 
	C86.636734,403.093048 72.130486,400.488190 60.976711,387.721741 
	C55.427227,381.369904 52.986500,373.949280 53.772732,365.561798 
	C54.250191,360.468323 56.433811,356.241974 61.205044,353.888306 
	C65.627853,351.706451 69.671341,353.982178 70.337646,358.856079 
	C70.449776,359.676300 70.365028,360.521515 70.413467,361.352692 
	C70.883728,369.422821 76.746468,373.660645 84.512444,371.382507 
	C88.562042,370.194550 92.222000,368.093506 95.136368,365.030762 
	C104.192688,355.513397 111.012856,344.527374 116.049889,332.418732 
	C116.212242,332.028442 116.070480,331.511658 116.070480,330.434845 
	C109.928444,332.790222 104.694870,336.445160 98.566986,338.011902 
	C74.542084,344.154510 48.874294,334.962036 37.905552,310.815552 
	C33.013077,300.045319 33.537010,289.446930 39.526962,279.228912 
	C42.423477,274.287903 46.488480,270.693054 52.364803,269.796326 
	C54.680534,269.442963 57.137260,269.431305 58.700317,271.710358 
	C60.273590,274.004272 59.269764,276.143494 58.100647,278.246643 
	C57.136490,279.981079 55.867989,281.651520 55.366631,283.519958 
	C53.135139,291.836121 57.740440,298.412598 66.386497,299.563019 
	C80.712418,301.469269 99.605927,286.994965 101.422585,272.626495 
	C101.943420,268.506989 100.206482,264.756165 98.740265,261.074127 
	C94.476204,250.366028 91.133736,239.343414 89.167061,228.045593 
	C86.648743,213.578766 88.008690,199.175339 92.299477,185.094803 
	C98.535538,164.630737 110.133560,148.212555 129.335724,138.171402 
	C151.762009,126.444305 173.980270,128.845291 194.868378,141.929214 
	C219.553116,157.391266 231.445877,180.657394 233.349899,209.412628 
	C234.279938,223.458145 231.143661,236.890869 227.550903,250.262314 
	C225.851242,256.588135 224.998428,262.984406 225.077209,270.008606 
M212.693863,365.624634 
	C205.786697,348.242310 201.724213,330.008789 196.685059,312.067993 
	C196.145782,310.147980 195.636047,308.196594 195.383514,306.225067 
	C195.080338,303.858124 195.991577,301.818787 198.321823,301.013855 
	C200.701660,300.191803 202.974350,300.676056 204.495209,302.943481 
	C205.141342,303.906799 205.688583,304.949890 206.173126,306.006104 
	C212.015610,318.741669 221.073654,328.373352 233.693787,334.572662 
	C253.457855,344.281158 273.357330,344.822937 293.342407,335.312286 
	C305.730988,329.416718 315.459106,319.995911 325.408661,310.871490 
	C329.496490,307.122711 333.726349,303.528778 338.239044,299.558746 
	C335.124786,298.186005 332.828857,299.093048 330.516876,300.020538 
	C325.681824,301.960205 321.523499,305.052765 317.134399,307.763702 
	C295.117096,321.362976 271.943085,327.949890 246.266098,319.380554 
	C222.431747,311.426147 208.507874,289.060394 212.500961,264.336182 
	C214.357117,252.843338 217.285995,241.525284 219.198425,230.039703 
	C223.708923,202.950500 217.075821,179.091064 197.164719,159.700516 
	C178.826019,141.841263 150.336365,137.496201 128.784210,153.906815 
	C109.913040,168.276031 102.237396,187.960098 101.424545,210.788055 
	C100.889336,225.818802 105.248695,240.059448 110.095741,254.118927 
	C112.264076,260.408447 114.416168,266.650513 113.722443,273.561249 
	C111.300011,297.692535 76.482849,323.124695 49.743649,305.653473 
	C51.484570,308.435181 52.696892,310.783417 54.283905,312.842957 
	C66.840958,329.138611 88.407082,332.284393 107.227325,320.695038 
	C115.777901,315.429688 123.443825,309.038239 130.915253,302.387421 
	C132.987091,300.543182 135.168976,298.790375 137.994202,300.718140 
	C140.928345,302.720245 140.340393,305.590851 139.336716,308.371338 
	C133.335022,324.997559 126.808342,341.443115 117.349739,356.425140 
	C107.821114,371.518036 97.533379,386.099731 75.793396,384.284973 
	C89.130028,392.227570 108.555496,390.285461 121.340607,379.748505 
	C127.893364,374.347961 133.734192,368.187897 138.758774,361.233459 
	C150.121216,345.506866 156.953903,327.605225 163.956039,309.772980 
	C165.122238,306.803009 166.389053,304.019531 170.185532,304.552307 
	C174.097229,305.101349 174.876175,308.187683 175.253448,311.538330 
	C177.783264,334.006653 183.867905,355.314301 196.730316,374.194183 
	C207.106720,389.425018 220.876678,399.787628 239.653381,402.385193 
	C243.376083,402.900238 244.386017,402.844299 247.524384,401.641724 
	C241.613174,399.864655 236.349243,397.149719 231.702606,393.199127 
	C223.089035,385.875793 217.888245,376.217224 212.693863,365.624634 
z"/>
<path fill="#000000" opacity="1.000000" stroke="none" 
	d="
M291.997314,138.606079 
	C304.201294,138.394333 315.697449,139.232758 326.813385,143.541199 
	C345.794891,150.898239 358.093353,170.468521 356.572418,190.915482 
	C354.116760,223.927643 330.623505,235.691895 306.651245,236.958710 
	C298.679138,237.379990 290.666901,237.033188 282.673035,237.053772 
	C275.156189,237.073120 275.163055,237.082535 275.166473,244.364853 
	C275.171906,256.022644 275.006409,267.683746 275.246887,279.336548 
	C275.341583,283.926239 273.768097,285.624573 269.179199,285.314667 
	C264.370880,284.989899 259.508087,284.973633 254.699738,285.289093 
	C250.008026,285.596893 248.726685,283.686310 248.750717,279.196777 
	C248.905884,250.219635 248.830399,221.241287 248.831848,192.263321 
	C248.832642,176.275482 248.949570,160.286316 248.763199,144.300674 
	C248.712570,139.957977 250.151764,138.460617 254.527664,138.540665 
	C266.847412,138.765976 279.174103,138.611603 291.997314,138.606079 
M298.385864,214.668259 
	C299.715759,214.661530 301.046326,214.679184 302.375488,214.644363 
	C318.592133,214.219345 329.905243,204.065475 330.307770,188.167969 
	C330.612244,176.144257 324.716003,163.429184 306.665619,160.810501 
	C297.375702,159.462753 287.757385,160.361252 278.287140,160.283310 
	C275.070679,160.256836 275.173615,162.639633 275.172180,164.844421 
	C275.162384,179.972260 275.219666,195.100418 275.128296,210.227707 
	C275.109222,213.387894 276.180786,214.754227 279.461823,214.674500 
	C285.442596,214.529160 291.429993,214.655212 298.385864,214.668259 
z"/>
<path fill="#000000" opacity="1.000000" stroke="none" 
	d="
M358.781250,266.123993 
	C355.091705,262.575531 355.661896,260.205292 359.785156,257.839752 
	C363.375458,255.779938 366.681335,253.157791 369.884125,250.507675 
	C373.186890,247.774780 375.488068,247.853500 378.481995,251.326797 
	C389.378143,263.967468 410.899597,267.287659 424.982941,261.608002 
	C431.863922,258.832977 436.292755,253.810242 436.656860,246.197281 
	C437.007202,238.871979 433.472351,233.502686 427.099243,229.899719 
	C416.744568,224.045807 405.185120,221.076111 394.443298,216.149750 
	C387.912048,213.154419 381.524719,210.000641 376.177765,205.032074 
	C362.748199,192.553070 360.916107,171.866074 371.516846,156.854004 
	C380.330688,144.372421 392.832428,139.260910 407.283722,137.802338 
	C418.628082,136.657364 429.822632,137.192764 440.698151,141.405457 
	C447.722687,144.126450 453.668793,148.040100 458.494873,153.817291 
	C460.774689,156.546326 461.018097,158.553772 457.766144,160.725433 
	C454.032776,163.218582 450.399750,165.910156 446.996155,168.833466 
	C444.331329,171.122299 442.412567,171.233994 439.832001,168.619781 
	C431.128021,159.802399 420.249298,157.785019 408.466248,159.451614 
	C397.901062,160.945938 391.778809,168.235062 392.244171,178.114624 
	C392.440582,182.285660 394.470428,185.329056 397.453308,187.955612 
	C404.111877,193.818695 412.165344,196.971786 420.405609,199.732788 
	C431.839264,203.563782 442.659149,208.385544 452.210266,216.062912 
	C465.062103,226.393478 466.175354,243.981110 461.571075,256.144501 
	C456.717255,268.967102 447.311646,277.648407 434.719696,282.047852 
	C413.854614,289.337830 393.126495,288.319366 373.225464,278.085480 
	C367.679718,275.233673 363.157043,271.021332 358.781250,266.123993 
z"/>
<path fill="#000000" opacity="1.000000" stroke="none" 
	d="
M573.976440,195.177704 
	C580.983459,224.829208 587.870972,254.084320 594.812317,283.568085 
	C589.867126,284.863403 585.547363,284.347778 581.288330,284.173767 
	C578.335449,284.053070 578.432312,281.272308 578.051819,279.262329 
	C575.203674,264.217255 572.578247,249.128891 569.612610,234.107483 
	C567.195801,221.866043 564.331360,209.713531 561.826660,197.488556 
	C561.122925,194.053452 559.376099,192.760071 555.950806,192.915771 
	C547.609131,193.294983 539.927368,195.864746 532.712341,199.837723 
	C511.309418,211.623322 499.257629,230.179413 494.047028,253.642471 
	C492.198853,261.964630 490.866821,270.349487 491.179352,278.894257 
	C491.324249,282.855103 490.060181,284.519135 485.784607,284.478790 
	C475.617523,284.382874 475.412354,284.562775 476.114899,274.250092 
	C476.775085,264.559753 480.280914,255.429855 482.394958,246.022232 
	C489.947113,212.414658 497.566650,178.822174 505.196777,145.232178 
	C505.865936,142.286255 505.914429,139.667053 503.308350,137.525574 
	C501.559784,136.088730 500.292755,134.249374 501.219299,131.851395 
	C502.046417,129.710709 503.965393,128.995224 506.091187,129.050751 
	C508.966217,129.125839 510.249390,127.643372 510.867798,125.006798 
	C511.703644,121.443062 512.763489,117.931297 513.749817,114.403542 
	C514.913696,110.240707 516.131714,106.476425 509.920502,104.784401 
	C506.697937,103.906532 506.172729,100.490349 508.688721,97.884384 
	C514.935791,91.413933 521.201050,84.939041 527.817871,78.856232 
	C531.525024,75.448296 536.384521,75.936707 540.481079,79.755432 
	C546.205200,85.091293 551.790283,90.594376 557.168396,96.278053 
	C561.962952,101.345100 561.001099,103.953537 554.155334,105.671448 
	C553.701538,105.785316 553.302490,106.117210 552.557434,106.521751 
	C553.617798,113.198235 555.051147,119.801117 557.157776,126.274544 
	C557.966431,128.759232 559.847412,128.898270 561.910095,128.973068 
	C564.243652,129.057693 566.226013,129.821671 566.947754,132.276337 
	C567.665588,134.717819 566.510254,136.516800 564.523376,137.775482 
	C561.579163,139.640656 561.615479,142.137070 562.338928,145.184952 
	C566.258911,161.697952 570.032837,178.245590 573.976440,195.177704 
M507.469940,202.819305 
	C521.130188,188.718872 537.547119,180.109985 557.835388,178.369171 
	C555.780212,168.564941 553.849915,159.361618 551.922546,150.157715 
	C551.476440,148.027237 550.105103,147.860886 548.181091,148.005295 
	C543.140198,148.383591 538.323608,149.714127 533.687622,151.511673 
	C520.782654,156.515472 510.732452,164.195816 508.544952,179.112259 
	C507.895966,183.537659 506.302063,187.829468 505.722351,192.258575 
	C505.178833,196.411514 502.915466,200.329239 503.614349,204.800476 
	C505.244629,204.819595 506.071899,203.965820 507.469940,202.819305 
M523.285767,128.958344 
	C529.756653,128.967545 536.228088,128.926743 542.698120,129.006317 
	C546.098389,129.048126 547.133545,127.582779 546.299500,124.343918 
	C545.060913,119.534378 543.744507,114.738647 543.328796,109.748535 
	C543.118896,107.228905 541.610840,105.612099 539.017944,106.079666 
	C534.223450,106.944229 528.758728,103.559586 524.612061,108.314423 
	C524.332703,108.634674 524.385864,109.269180 524.337463,109.762749 
	C523.849670,114.733742 522.641907,119.549561 521.371643,124.366287 
	C520.967407,125.899132 519.607910,128.009094 523.285767,128.958344 
z"/>
<path fill="#000000" opacity="1.000000" stroke="none" 
	d="
M697.194458,198.002533 
	C700.272095,204.110260 701.435242,210.210556 701.373291,216.686005 
	C701.231506,231.514633 701.266235,246.345886 701.350098,261.175385 
	C701.398499,269.725555 703.157410,271.292694 711.643738,270.870239 
	C713.026672,270.801361 714.363708,270.771423 715.196411,272.093811 
	C716.151367,273.610321 715.482544,274.978973 714.614868,276.262665 
	C710.738953,281.997192 705.311768,284.793030 698.429077,284.226685 
	C692.000977,283.697815 688.290466,279.779114 686.528809,273.757172 
	C686.163757,272.509247 685.567688,271.328888 684.951538,269.804199 
	C682.137390,270.866333 680.691589,273.184631 678.828857,274.932526 
	C670.048340,283.171814 659.884888,287.545746 647.813416,284.774475 
	C628.841797,280.419098 620.973145,257.063385 632.305969,240.192993 
	C638.215942,231.395203 646.943604,226.845139 656.232239,222.937393 
	C663.769775,219.766327 671.590576,217.438293 679.583618,215.771545 
	C683.461365,214.962906 684.280701,212.850449 683.565125,209.278824 
	C681.865601,200.795685 674.678223,195.091965 664.229431,194.159805 
	C650.352600,192.921829 639.342957,198.650833 629.893188,208.232300 
	C619.942566,218.321609 614.732788,230.261368 615.020447,244.602386 
	C615.244324,255.761459 614.866821,266.932434 615.077759,278.092010 
	C615.165039,282.712433 613.895508,284.629791 608.881775,284.429504 
	C596.080017,283.918121 597.781433,285.998352 597.729980,273.203186 
	C597.642761,251.541687 597.666382,229.879593 597.701477,208.217834 
	C597.715027,199.822998 596.676880,191.956604 589.473083,186.195908 
	C586.698547,183.977127 587.828918,181.966507 590.641174,180.441940 
	C598.177490,176.356277 608.612366,181.180450 612.559021,190.405487 
	C614.205383,194.253952 613.704407,198.596817 615.779236,202.925583 
	C618.349609,200.313919 620.703125,198.033417 622.932861,195.637665 
	C632.265869,185.609863 644.325134,180.230057 657.415588,179.283066 
	C673.406006,178.126282 687.678345,183.250580 697.194458,198.002533 
M668.146851,267.777466 
	C674.234253,264.292908 681.559082,260.934296 683.210327,254.035812 
	C685.206543,245.696991 684.174194,236.711807 683.518372,227.288269 
	C671.694458,230.878098 660.365051,233.660431 651.316833,241.485886 
	C644.629089,247.269806 642.779419,257.807281 646.858215,264.087128 
	C650.828186,270.199371 658.296204,271.668091 668.146851,267.777466 
z"/>
<path fill="#000000" opacity="1.000000" stroke="none" 
	d="
M570.148743,59.164482 
	C571.197815,58.068371 572.064270,57.274883 572.796387,56.372437 
	C574.686707,54.042294 576.438660,52.571701 579.241699,55.497498 
	C581.599243,57.958199 583.018616,59.833916 579.876587,62.863880 
	C575.327332,67.250923 571.105042,71.982109 566.830750,76.646721 
	C565.189758,78.437584 563.501282,79.204712 561.937805,76.953033 
	C560.561218,74.970528 556.247803,73.745621 559.488525,70.189392 
	C562.851379,66.499161 566.424072,63.000126 570.148743,59.164482 
z"/>
<path fill="#000000" opacity="1.000000" stroke="none" 
	d="
M492.488556,67.501709 
	C490.899139,65.780083 489.691498,64.156006 488.194031,62.869144 
	C484.343628,59.560169 486.807831,57.088821 489.184418,54.672222 
	C492.106018,51.701492 493.578613,54.806210 495.141174,56.402008 
	C499.198303,60.545418 502.946625,64.998047 507.097198,69.040810 
	C509.972687,71.841606 508.356567,73.435158 506.318970,75.516922 
	C504.205017,77.676674 502.500305,78.403046 500.230682,75.718742 
	C497.880402,72.939018 495.247559,70.398186 492.488556,67.501709 
z"/>
<path fill="#000000" opacity="1.000000" stroke="none" 
	d="
M589.966431,105.938461 
	C585.499756,105.777931 581.518372,105.518494 577.535156,105.487717 
	C574.349426,105.463081 573.734253,103.679649 573.705444,100.972115 
	C573.674805,98.094437 574.732544,96.636406 577.735596,96.619118 
	C583.545532,96.585670 589.356934,96.499825 595.163513,96.307777 
	C598.570190,96.195107 599.340332,97.999878 599.348938,100.983231 
	C599.357178,103.837288 598.940247,105.969994 595.434814,105.884911 
	C593.774902,105.844612 592.112305,105.916962 589.966431,105.938461 
z"/>
<path fill="#000000" opacity="1.000000" stroke="none" 
	d="
M486.907715,96.659424 
	C490.228760,97.020935 494.117798,95.267174 494.324158,100.585938 
	C494.459839,104.083122 493.428375,105.987465 489.641174,105.884796 
	C483.981293,105.731354 478.317993,105.685501 472.655792,105.643333 
	C469.335724,105.618599 468.529846,103.807640 468.609253,100.793884 
	C468.689331,97.753174 470.053650,96.659409 472.923248,96.698380 
	C477.421234,96.759460 481.921204,96.678413 486.907715,96.659424 
z"/>
<path fill="#000000" opacity="1.000000" stroke="none" 
	d="
M528.939209,50.020924 
	C528.949219,47.706738 529.031555,45.881733 528.956787,44.063183 
	C528.823730,40.824051 529.502441,38.731522 533.538269,38.729546 
	C537.720032,38.727501 538.520752,40.736916 538.384399,44.302471 
	C538.194641,49.264851 538.214722,54.242935 538.362183,59.207851 
	C538.461548,62.554646 536.880005,63.476376 533.820068,63.438057 
	C530.964478,63.402298 528.888367,62.930817 528.960876,59.457150 
	C529.023132,56.477211 528.952576,53.494499 528.939209,50.020924 
z"/>
<path fill="#000000" opacity="1.000000" stroke="none" 
	d="
M189.596176,223.769012 
	C192.832520,220.226883 196.444733,219.502609 200.115082,221.818329 
	C203.915466,224.216125 205.507584,228.085754 204.806305,232.528427 
	C204.146332,236.709442 201.998978,239.973541 197.561661,241.034943 
	C194.557541,241.753525 191.861877,240.800415 189.950943,238.510620 
	C187.439316,235.501022 185.869537,232.021667 187.248260,227.977463 
	C187.720779,226.591415 188.633530,225.355453 189.596176,223.769012 
z"/>
<path fill="#000000" opacity="1.000000" stroke="none" 
	d="
M159.609009,241.129852 
	C154.540924,241.609756 151.647400,239.303116 150.154251,235.090897 
	C148.511078,230.455429 149.876282,224.974075 153.181381,222.327072 
	C156.354980,219.785385 161.039764,220.139923 163.996017,223.145523 
	C169.431671,228.671844 167.473267,237.471176 159.609009,241.129852 
z"/>
</svg>